<svg xmlns="http://www.w3.org/2000/svg" viewBox="0 0 100 100">
  <g fill="#F5A623">
    <circle cx="77.57" cy="54.86" r="7"/>
    <circle cx="54.86" cy="77.57" r="7"/>
    <circle cx="45.14" cy="77.57" r="7"/>
    <circle cx="22.43" cy="54.86" r="7"/>
    <circle cx="22.43" cy="45.14" r="7"/>
    <circle cx="45.14" cy="22.43" r="7"/>
    <circle cx="54.86" cy="22.43" r="7"/>
    <circle cx="77.57" cy="45.14" r="7"/>
  </g>
  <g fill="none" stroke="#F5A623" stroke-width="13" stroke-linecap="round">
    <path d="M 77.57,54.86 A 28,28 0 0,1 54.86,77.57"/>
    <path d="M 45.14,77.57 A 28,28 0 0,1 22.43,54.86"/>
    <path d="M 22.43,45.14 A 28,28 0 0,1 45.14,22.43"/>
    <path d="M 54.86,22.43 A 28,28 0 0,1 77.57,45.14"/>
  </g>
</svg>
